<svg version="1.1" xmlns="http://www.w3.org/2000/svg" viewBox="0 0 1091.5585327148438 670.8772888183594" width="1091.5585327148438" height="670.8772888183594">
  <!-- svg-source:excalidraw -->
  
  <defs>
    <style>
      @font-face {
        font-family: "Virgil";
        src: url("https://excalidraw.com/Virgil.woff2");
      }
      @font-face {
        font-family: "Cascadia";
        src: url("https://excalidraw.com/Cascadia.woff2");
      }
    </style>
  </defs>
  <rect x="0" y="0" width="1091.5585327148438" height="670.8772888183594" fill="#ffffff"></rect><g stroke-linecap="round" transform="translate(10 388.98992919921875) rotate(0 111.7076416015625 30.7152099609375)"><path d="M-0.73 -0.45 C86.74 3.25, 174.44 3.11, 223.02 1.31 M-0.71 0.67 C58.9 -0.83, 117.44 -0.86, 223.31 0.01 M223.47 1.64 C222.4 17.65, 224.08 34.5, 221.66 63.32 M222.51 0.07 C222.63 14.46, 223.71 27.24, 223.88 61.54 M222.73 62.44 C171.91 58.57, 118.32 59.22, 0.99 61.89 M224.15 60.79 C139.47 60.17, 55.64 59.54, 0.72 61.26 M-0.25 61.85 C-0.7 44.95, 1.07 27.54, 0.28 -0.78 M-0.15 60.79 C0.26 48.88, 0.57 35.71, 0.17 -0.36" stroke="#000000" stroke-width="1" fill="none"></path></g><g transform="translate(36.98486328125 409.79583740234375) rotate(0 88 12.5)"><text x="0" y="18" font-family="Virgil, Segoe UI Emoji" font-size="20px" fill="#000000" text-anchor="start" style="white-space: pre;" direction="ltr">Background Script</text></g><g stroke-linecap="round" transform="translate(493.26812744140625 395.1486511230469) rotate(0 130.07351684570312 33.058837890625)"><path d="M-0.28 0 C60.68 -0.82, 119.89 -1.52, 259.7 1.29 M0.78 -0.02 C98.26 -0.24, 194.78 -0.23, 260.87 0.51 M258.19 -1.88 C259.25 16.91, 262.4 35.14, 259.93 65.51 M260.48 -0.11 C259.32 14.85, 259.46 28.31, 260.85 65.6 M260.65 64.95 C181.39 63.92, 103.4 63.55, -0.63 67.09 M260.07 65.88 C162.74 64.49, 64.86 64.88, 0.51 66.53 M-1.76 67.38 C0.88 46.68, -1.37 32.15, 0.58 1.4 M0.96 65.49 C-0.02 51.67, -1.22 35.72, -0.78 0.81" stroke="#000000" stroke-width="1" fill="none"></path></g><g transform="translate(537.1109619140625 414.0693359375) rotate(0 71.5 12.5)"><text x="71.5" y="18" font-family="Virgil, Segoe UI Emoji" font-size="20px" fill="#000000" text-anchor="middle" style="white-space: pre;" direction="ltr">Content Script</text></g><g stroke-linecap="round" transform="translate(771.9680786132812 163.18917846679688) rotate(0 110.83148193359375 32.26191711425781)"><path d="M-1.35 1.4 C79.65 -0.21, 160.61 -0.28, 220.46 -1.28 M0.12 0.21 C54.42 1.49, 110.2 1.64, 221.44 -0.59 M220.93 0.78 C223.8 15.15, 220.04 30.55, 219.85 64.36 M221.39 0.07 C221.56 16.99, 221.25 36.26, 221.69 63.94 M220.26 64.06 C152.69 65.97, 81.71 64.41, 1.42 66.03 M221.24 65.38 C143.41 65.45, 63.02 65.29, -0.47 64.54 M1.46 63.25 C0.38 42.28, 0.78 17.53, -0.33 1.02 M-0.56 63.77 C-0.22 49.97, 0.07 35.91, 0.8 0.74" stroke="#000000" stroke-width="1" fill="none"></path></g><g transform="translate(835.3466186523438 183.18759155273438) rotate(0 45 12.5)"><text x="0" y="18" font-family="Virgil, Segoe UI Emoji" font-size="20px" fill="#000000" text-anchor="start" style="white-space: pre;" direction="ltr">Popup JS</text></g><g stroke-linecap="round" transform="translate(491.4654541015625 587.6343078613281) rotate(0 130.60137939453125 36.621490478515625)"><path d="M-1.48 -0.14 C72.69 -2.06, 145.01 -0.28, 262.52 -1.4 M0.63 0.55 C77.47 -1.74, 155.51 -1.41, 261.8 0.3 M262.81 0.83 C260.23 28.34, 260.65 56.12, 262.67 72.97 M260.92 -0.92 C261.46 22.71, 262.35 46.22, 260.3 72.75 M261.97 72.21 C194.26 71.69, 124.07 73.05, -1.51 73.74 M261.46 73.48 C203.16 74, 144.29 73.48, 0.01 73.96 M1.28 74.78 C0.81 50.34, 1.58 26.87, 1.76 0.21 M-0.01 73.79 C-0.62 45.27, -0.85 19.08, 0.54 0.43" stroke="#000000" stroke-width="1" fill="none"></path></g><g transform="translate(571.2670288085938 609.0289306640625) rotate(0 40 12.5)"><text x="40" y="18" font-family="Virgil, Segoe UI Emoji" font-size="20px" fill="#000000" text-anchor="middle" style="white-space: pre;" direction="ltr">Webpage</text></g><g stroke-linecap="round"><g transform="translate(255.0916189995129 420.54763290021697) rotate(0 108.79130277643918 -0.367304078657412)"><path d="M-0.08 -0.35 C36.32 -0.06, 182.4 0.98, 219.16 0.83 M-1.58 -1.57 C34.57 -1.52, 181.11 -0.91, 218.08 -0.72" stroke="#000000" stroke-width="1" fill="none"></path></g><g transform="translate(255.0916189995129 420.54763290021697) rotate(0 108.79130277643918 -0.367304078657412)"><path d="M189.27 9 C202.09 7.5, 209 2.03, 217.69 -1.87 M189.12 9.42 C199.51 6.36, 210.05 1.23, 217.17 -0.56" stroke="#000000" stroke-width="1" fill="none"></path></g><g transform="translate(255.0916189995129 420.54763290021697) rotate(0 108.79130277643918 -0.367304078657412)"><path d="M189.36 -11.52 C202 -5.5, 208.87 -3.44, 217.69 -1.87 M189.21 -11.1 C199.6 -6.64, 210.11 -4.25, 217.17 -0.56" stroke="#000000" stroke-width="1" fill="none"></path></g></g><g transform="translate(256.88671875 322.86590576171875) rotate(0 97.5 40)"><text x="0" y="14" font-family="Virgil, Segoe UI Emoji" font-size="16px" fill="#000000" text-anchor="start" style="white-space: pre;" direction="ltr">Listens to web page </text><text x="0" y="34" font-family="Virgil, Segoe UI Emoji" font-size="16px" fill="#000000" text-anchor="start" style="white-space: pre;" direction="ltr">changes and notifies </text><text x="0" y="54" font-family="Virgil, Segoe UI Emoji" font-size="16px" fill="#000000" text-anchor="start" style="white-space: pre;" direction="ltr">content script to inject </text><text x="0" y="74" font-family="Virgil, Segoe UI Emoji" font-size="16px" fill="#000000" text-anchor="start" style="white-space: pre;" direction="ltr">the background css</text></g><g stroke-linecap="round"><g transform="translate(826.3164672851562 245.30413818359375) rotate(0 -33.83978427865077 72.91723461360672)"><path d="M-0.26 1.06 C-11.76 25.12, -58.15 119.87, -69.48 143.71 M1.8 0.57 C-9.26 24.89, -55.35 121.69, -67.09 145.26" stroke="#000000" stroke-width="1" fill="none"></path></g><g transform="translate(826.3164672851562 245.30413818359375) rotate(0 -33.83978427865077 72.91723461360672)"><path d="M-62.26 114.38 C-64.93 124.19, -65.02 132.41, -65.44 144.88 M-63.06 115.51 C-65.19 126.87, -65.79 139.61, -66.9 144.86" stroke="#000000" stroke-width="1" fill="none"></path></g><g transform="translate(826.3164672851562 245.30413818359375) rotate(0 -33.83978427865077 72.91723461360672)"><path d="M-43.79 123.33 C-51.19 130.78, -56.05 136.7, -65.44 144.88 M-44.59 124.46 C-54.1 132.35, -62.02 141.53, -66.9 144.86" stroke="#000000" stroke-width="1" fill="none"></path></g></g><g transform="translate(827.5585327148438 256.0491638183594) rotate(0 127 30)"><text x="0" y="14" font-family="Virgil, Segoe UI Emoji" font-size="16px" fill="#000000" text-anchor="start" style="white-space: pre;" direction="ltr">Listens to click events and</text><text x="0" y="34" font-family="Virgil, Segoe UI Emoji" font-size="16px" fill="#000000" text-anchor="start" style="white-space: pre;" direction="ltr">notifies content script regarding</text><text x="0" y="54" font-family="Virgil, Segoe UI Emoji" font-size="16px" fill="#000000" text-anchor="start" style="white-space: pre;" direction="ltr">which event occurred </text></g><g stroke-linecap="round"><g transform="translate(620.3837555838551 470.67565461086167) rotate(354.54455105639016 -5.035849620563567 47.96256963728547)"><path d="M0.08 0.26 C-1.65 16.37, -7.67 80.63, -9.35 96.58 M-1.34 -0.65 C-3.28 15.13, -8.55 78.52, -10.15 94.84" stroke="#000000" stroke-width="1" fill="none"></path></g><g transform="translate(620.3837555838551 470.67565461086167) rotate(354.54455105639016 -5.035849620563567 47.96256963728547)"><path d="M-17.41 66.31 C-13.67 76.37, -11.81 88.88, -9.43 93.88 M-17.61 65.81 C-16.54 72.63, -13.7 79.63, -10.1 95.36" stroke="#000000" stroke-width="1" fill="none"></path></g><g transform="translate(620.3837555838551 470.67565461086167) rotate(354.54455105639016 -5.035849620563567 47.96256963728547)"><path d="M3.03 68.16 C-1.07 77.52, -7.05 89.33, -9.43 93.88 M2.83 67.66 C-0.97 74.15, -3.01 80.7, -10.1 95.36" stroke="#000000" stroke-width="1" fill="none"></path></g></g><g transform="translate(628.6990356445312 492.1788635253906) rotate(0 61.5 20)"><text x="0" y="14" font-family="Virgil, Segoe UI Emoji" font-size="16px" fill="#000000" text-anchor="start" style="white-space: pre;" direction="ltr">Injects the css</text><text x="0" y="34" font-family="Virgil, Segoe UI Emoji" font-size="16px" fill="#000000" text-anchor="start" style="white-space: pre;" direction="ltr">into webpage</text></g><g stroke-linecap="round" transform="translate(569.7357788085938 10) rotate(0 74.48602294921875 31.77313232421875)"><path d="M1.95 1.93 C52.12 0.78, 98.99 -0.93, 150.54 -1.52 M-0.03 0.57 C59.49 -0.15, 118.1 -0.64, 149.3 0.91 M149.29 1.67 C149.36 22.25, 150.52 44, 150.38 63.79 M149.56 -0.33 C147.56 19.6, 148.17 37.04, 149.86 63.94 M147.38 63.15 C95.51 62.24, 41.99 60.37, -1.2 63.56 M148.71 64.02 C104.04 62.52, 59.31 61.86, 0.48 64.03 M0.53 63.17 C0.86 45.38, -0.42 29.51, -0.61 -1 M-0.51 64.48 C0.07 43.05, -0.38 24.43, 0.77 0.66" stroke="#000000" stroke-width="1" fill="none"></path></g><g transform="translate(586.2218017578125 31.77313232421875) rotate(0 58 10)"><text x="58" y="14" font-family="Virgil, Segoe UI Emoji" font-size="16px" fill="#000000" text-anchor="middle" style="white-space: pre;" direction="ltr">chrome.storage</text></g><g stroke-linecap="round"><g transform="translate(614.122314453125 373.1361083984375) rotate(0 0.02786794877039256 -143.32752440050245)"><path d="M1.01 0.09 C1.02 -47.58, 0.31 -239.12, -0.02 -286.75 M0.08 -0.91 C-0.06 -48.39, -1.15 -238.42, -0.92 -285.64" stroke="#000000" stroke-width="1" fill="none"></path></g><g transform="translate(614.122314453125 373.1361083984375) rotate(0 0.02786794877039256 -143.32752440050245)"><path d="M9.52 -257.31 C5.13 -267.14, 3.89 -272.54, -0.3 -284.31 M10 -258.26 C7.6 -264.39, 4.65 -269.96, -0.44 -286.38" stroke="#000000" stroke-width="1" fill="none"></path></g><g transform="translate(614.122314453125 373.1361083984375) rotate(0 0.02786794877039256 -143.32752440050245)"><path d="M-11 -257.29 C-9.34 -267.29, -4.52 -272.71, -0.3 -284.31 M-10.52 -258.23 C-8.28 -264.49, -6.58 -270.06, -0.44 -286.38" stroke="#000000" stroke-width="1" fill="none"></path></g></g><g stroke-linecap="round"><g transform="translate(864.3025989354142 150.35620813444257) rotate(0 -66.08526601519065 -53.53088618617958)"><path d="M-0.95 -0.11 C-23.22 -17.82, -110.38 -89.11, -132.47 -106.95 M0.75 -1.22 C-21.69 -18.66, -110.4 -87.94, -132.92 -105.4" stroke="#000000" stroke-width="1" fill="none"></path></g><g transform="translate(864.3025989354142 150.35620813444257) rotate(0 -66.08526601519065 -53.53088618617958)"><path d="M-104.56 -94.58 C-115.53 -100.22, -127.13 -103.97, -133.43 -103.83 M-103.97 -95.21 C-111.17 -98.49, -118.89 -100.04, -133.53 -106.24" stroke="#000000" stroke-width="1" fill="none"></path></g><g transform="translate(864.3025989354142 150.35620813444257) rotate(0 -66.08526601519065 -53.53088618617958)"><path d="M-117.17 -78.39 C-123.07 -90.32, -129.7 -100.44, -133.43 -103.83 M-116.57 -79.01 C-120.34 -86.62, -124.74 -92.44, -133.53 -106.24" stroke="#000000" stroke-width="1" fill="none"></path></g></g><g transform="translate(412.13134765625 134.00479125976562) rotate(0 94 40)"><text x="0" y="14" font-family="Virgil, Segoe UI Emoji" font-size="16px" fill="#000000" text-anchor="start" style="white-space: pre;" direction="ltr">Fetches the stored</text><text x="0" y="34" font-family="Virgil, Segoe UI Emoji" font-size="16px" fill="#000000" text-anchor="start" style="white-space: pre;" direction="ltr">image url if possible</text><text x="0" y="54" font-family="Virgil, Segoe UI Emoji" font-size="16px" fill="#000000" text-anchor="start" style="white-space: pre;" direction="ltr">during on mount and </text><text x="0" y="74" font-family="Virgil, Segoe UI Emoji" font-size="16px" fill="#000000" text-anchor="start" style="white-space: pre;" direction="ltr">each webpage transition</text></g><g transform="translate(812.5084838867188 42.37440490722656) rotate(0 99 30)"><text x="0" y="14" font-family="Virgil, Segoe UI Emoji" font-size="16px" fill="#000000" text-anchor="start" style="white-space: pre;" direction="ltr">Writes to the storage </text><text x="0" y="34" font-family="Virgil, Segoe UI Emoji" font-size="16px" fill="#000000" text-anchor="start" style="white-space: pre;" direction="ltr">depending on which event </text><text x="0" y="54" font-family="Virgil, Segoe UI Emoji" font-size="16px" fill="#000000" text-anchor="start" style="white-space: pre;" direction="ltr">occurred</text></g></svg>