<svg version="1.1" xmlns="http://www.w3.org/2000/svg" viewBox="0 0 848.9013671875 531.8852233886719" width="848.9013671875" height="531.8852233886719">
  <!-- svg-source:excalidraw -->
  
  <defs>
    <style>
      @font-face {
        font-family: "Virgil";
        src: url("https://excalidraw.com/Virgil.woff2");
      }
      @font-face {
        font-family: "Cascadia";
        src: url("https://excalidraw.com/Cascadia.woff2");
      }
    </style>
  </defs>
  <rect x="0" y="0" width="848.9013671875" height="531.8852233886719" fill="#ffffff"></rect><g stroke-linecap="round" transform="translate(10 10) rotate(0 111.7076416015625 30.7152099609375)"><path d="M-0.73 -0.45 C86.74 3.25, 174.44 3.11, 223.02 1.31 M-0.71 0.67 C58.9 -0.83, 117.44 -0.86, 223.31 0.01 M223.47 1.64 C222.4 17.65, 224.08 34.5, 221.66 63.32 M222.51 0.07 C222.63 14.46, 223.71 27.24, 223.88 61.54 M222.73 62.44 C171.91 58.57, 118.32 59.22, 0.99 61.89 M224.15 60.79 C139.47 60.17, 55.64 59.54, 0.72 61.26 M-0.25 61.85 C-0.7 44.95, 1.07 27.54, 0.28 -0.78 M-0.15 60.79 C0.26 48.88, 0.57 35.71, 0.17 -0.36" stroke="#000000" stroke-width="1" fill="none"></path></g><g transform="translate(36.98486328125 30.805908203125) rotate(0 88 12.5)"><text x="0" y="18" font-family="Virgil, Segoe UI Emoji" font-size="20px" fill="#000000" text-anchor="start" style="white-space: pre;" direction="ltr">Background Script</text></g><g stroke-linecap="round" transform="translate(250.6109619140625 256.1565856933594) rotate(0 130.07351684570312 33.058837890625)"><path d="M-0.28 0 C60.68 -0.82, 119.89 -1.52, 259.7 1.29 M0.78 -0.02 C98.26 -0.24, 194.78 -0.23, 260.87 0.51 M258.19 -1.88 C259.25 16.91, 262.4 35.14, 259.93 65.51 M260.48 -0.11 C259.32 14.85, 259.46 28.31, 260.85 65.6 M260.65 64.95 C181.39 63.92, 103.4 63.55, -0.63 67.09 M260.07 65.88 C162.74 64.49, 64.86 64.88, 0.51 66.53 M-1.76 67.38 C0.88 46.68, -1.37 32.15, 0.58 1.4 M0.96 65.49 C-0.02 51.67, -1.22 35.72, -0.78 0.81" stroke="#000000" stroke-width="1" fill="none"></path></g><g transform="translate(294.45379638671875 275.0772705078125) rotate(0 71.5 12.5)"><text x="71.5" y="18" font-family="Virgil, Segoe UI Emoji" font-size="20px" fill="#000000" text-anchor="middle" style="white-space: pre;" direction="ltr">Content Script</text></g><g stroke-linecap="round" transform="translate(529.3109130859375 24.197113037109375) rotate(0 110.83148193359375 32.26191711425781)"><path d="M-1.35 1.4 C79.65 -0.21, 160.61 -0.28, 220.46 -1.28 M0.12 0.21 C54.42 1.49, 110.2 1.64, 221.44 -0.59 M220.93 0.78 C223.8 15.15, 220.04 30.55, 219.85 64.36 M221.39 0.07 C221.56 16.99, 221.25 36.26, 221.69 63.94 M220.26 64.06 C152.69 65.97, 81.71 64.41, 1.42 66.03 M221.24 65.38 C143.41 65.45, 63.02 65.29, -0.47 64.54 M1.46 63.25 C0.38 42.28, 0.78 17.53, -0.33 1.02 M-0.56 63.77 C-0.22 49.97, 0.07 35.91, 0.8 0.74" stroke="#000000" stroke-width="1" fill="none"></path></g><g transform="translate(592.689453125 44.195526123046875) rotate(0 45 12.5)"><text x="0" y="18" font-family="Virgil, Segoe UI Emoji" font-size="20px" fill="#000000" text-anchor="start" style="white-space: pre;" direction="ltr">Popup JS</text></g><g stroke-linecap="round" transform="translate(248.80828857421875 448.6422424316406) rotate(0 130.60137939453125 36.621490478515625)"><path d="M-1.48 -0.14 C72.69 -2.06, 145.01 -0.28, 262.52 -1.4 M0.63 0.55 C77.47 -1.74, 155.51 -1.41, 261.8 0.3 M262.81 0.83 C260.23 28.34, 260.65 56.12, 262.67 72.97 M260.92 -0.92 C261.46 22.71, 262.35 46.22, 260.3 72.75 M261.97 72.21 C194.26 71.69, 124.07 73.05, -1.51 73.74 M261.46 73.48 C203.16 74, 144.29 73.48, 0.01 73.96 M1.28 74.78 C0.81 50.34, 1.58 26.87, 1.76 0.21 M-0.01 73.79 C-0.62 45.27, -0.85 19.08, 0.54 0.43" stroke="#000000" stroke-width="1" fill="none"></path></g><g transform="translate(328.60986328125 470.036865234375) rotate(0 40 12.5)"><text x="40" y="18" font-family="Virgil, Segoe UI Emoji" font-size="20px" fill="#000000" text-anchor="middle" style="white-space: pre;" direction="ltr">Webpage</text></g><g stroke-linecap="round"><g transform="translate(131.98398300584915 86.68951939013789) rotate(0 45.94350944514605 82.80154005029647)"><path d="M-0.08 -0.35 C15.37 27.66, 77.65 139.6, 93.46 167.18 M-1.58 -1.57 C13.62 26.2, 76.36 137.71, 92.39 165.63" stroke="#000000" stroke-width="1" fill="none"></path></g><g transform="translate(131.98398300584915 86.68951939013789) rotate(0 45.94350944514605 82.80154005029647)"><path d="M68.97 145.76 C79.6 155.1, 84.53 160.48, 92 164.48 M68.83 146.18 C77.28 153.96, 85.84 159.68, 91.47 165.79" stroke="#000000" stroke-width="1" fill="none"></path></g><g transform="translate(131.98398300584915 86.68951939013789) rotate(0 45.94350944514605 82.80154005029647)"><path d="M86.82 135.64 C90.83 148.67, 89.21 157.77, 92 164.48 M86.68 136.06 C88.6 147.55, 90.62 156.98, 91.47 165.79" stroke="#000000" stroke-width="1" fill="none"></path></g></g><g transform="translate(179.63165283203125 88.2071533203125) rotate(0 97.5 40)"><text x="0" y="14" font-family="Virgil, Segoe UI Emoji" font-size="16px" fill="#000000" text-anchor="start" style="white-space: pre;" direction="ltr">Listens to web page </text><text x="0" y="34" font-family="Virgil, Segoe UI Emoji" font-size="16px" fill="#000000" text-anchor="start" style="white-space: pre;" direction="ltr">changes and notifies </text><text x="0" y="54" font-family="Virgil, Segoe UI Emoji" font-size="16px" fill="#000000" text-anchor="start" style="white-space: pre;" direction="ltr">content script to inject </text><text x="0" y="74" font-family="Virgil, Segoe UI Emoji" font-size="16px" fill="#000000" text-anchor="start" style="white-space: pre;" direction="ltr">the background css</text></g><g stroke-linecap="round"><g transform="translate(583.6593017578125 106.31207275390625) rotate(0 -33.83978427865077 72.91723461360672)"><path d="M-0.26 1.06 C-11.76 25.12, -58.15 119.87, -69.48 143.71 M1.8 0.57 C-9.26 24.89, -55.35 121.69, -67.09 145.26" stroke="#000000" stroke-width="1" fill="none"></path></g><g transform="translate(583.6593017578125 106.31207275390625) rotate(0 -33.83978427865077 72.91723461360672)"><path d="M-62.26 114.38 C-64.93 124.19, -65.02 132.41, -65.44 144.88 M-63.06 115.51 C-65.19 126.87, -65.79 139.61, -66.9 144.86" stroke="#000000" stroke-width="1" fill="none"></path></g><g transform="translate(583.6593017578125 106.31207275390625) rotate(0 -33.83978427865077 72.91723461360672)"><path d="M-43.79 123.33 C-51.19 130.78, -56.05 136.7, -65.44 144.88 M-44.59 124.46 C-54.1 132.35, -62.02 141.53, -66.9 144.86" stroke="#000000" stroke-width="1" fill="none"></path></g></g><g transform="translate(584.9013671875 117.05709838867188) rotate(0 127 30)"><text x="0" y="14" font-family="Virgil, Segoe UI Emoji" font-size="16px" fill="#000000" text-anchor="start" style="white-space: pre;" direction="ltr">Listens to click events and</text><text x="0" y="34" font-family="Virgil, Segoe UI Emoji" font-size="16px" fill="#000000" text-anchor="start" style="white-space: pre;" direction="ltr">notifies content script regarding</text><text x="0" y="54" font-family="Virgil, Segoe UI Emoji" font-size="16px" fill="#000000" text-anchor="start" style="white-space: pre;" direction="ltr">which event occurred </text></g><g stroke-linecap="round"><g transform="translate(377.7265900565113 331.68358918117417) rotate(354.54455105639016 -5.035849620563567 47.96256963728547)"><path d="M0.08 0.26 C-1.65 16.37, -7.67 80.63, -9.35 96.58 M-1.34 -0.65 C-3.28 15.13, -8.55 78.52, -10.15 94.84" stroke="#000000" stroke-width="1" fill="none"></path></g><g transform="translate(377.7265900565113 331.68358918117417) rotate(354.54455105639016 -5.035849620563567 47.96256963728547)"><path d="M-17.41 66.31 C-13.67 76.37, -11.81 88.88, -9.43 93.88 M-17.61 65.81 C-16.54 72.63, -13.7 79.63, -10.1 95.36" stroke="#000000" stroke-width="1" fill="none"></path></g><g transform="translate(377.7265900565113 331.68358918117417) rotate(354.54455105639016 -5.035849620563567 47.96256963728547)"><path d="M3.03 68.16 C-1.07 77.52, -7.05 89.33, -9.43 93.88 M2.83 67.66 C-0.97 74.15, -3.01 80.7, -10.1 95.36" stroke="#000000" stroke-width="1" fill="none"></path></g></g><g transform="translate(386.0418701171875 353.1867980957031) rotate(0 61.5 20)"><text x="0" y="14" font-family="Virgil, Segoe UI Emoji" font-size="16px" fill="#000000" text-anchor="start" style="white-space: pre;" direction="ltr">Injects the css</text><text x="0" y="34" font-family="Virgil, Segoe UI Emoji" font-size="16px" fill="#000000" text-anchor="start" style="white-space: pre;" direction="ltr">into webpage</text></g></svg>